<svg width="20" height="20" viewBox="0 0 20 20" fill="none" xmlns="http://www.w3.org/2000/svg">
<rect width="20" height="20" rx="10" fill="#9ACE47"/>
<path d="M16.8522 8.49942C17.0342 8.45694 17.1632 8.29515 17.1632 8.1083V6.7484C17.1632 6.29324 16.8165 5.92432 16.3888 5.92432H14.0155C13.8878 5.92432 13.7752 6.00321 13.7258 6.12091C13.6489 6.3049 13.4671 6.4341 13.2552 6.4341C13.0433 6.4341 12.8615 6.3049 12.7845 6.12091C12.7352 6.00305 12.6226 5.92432 12.4948 5.92432H3.61133C3.18364 5.92432 2.83691 6.29324 2.83691 6.7484V8.1083C2.83691 8.29515 2.96596 8.45694 3.14786 8.49942C3.79579 8.65082 4.28066 9.26521 4.28066 10.0002C4.28066 10.7351 3.79579 11.3497 3.14786 11.5009C2.96596 11.5434 2.83691 11.7052 2.83691 11.8921V13.252C2.83691 13.7071 3.18364 14.076 3.61133 14.076H12.4948C12.6226 14.076 12.7352 13.9971 12.7845 13.8794C12.8615 13.6955 13.0433 13.5663 13.2552 13.5663C13.4671 13.5663 13.6489 13.6955 13.7258 13.8794C13.7752 13.9973 13.8878 14.076 14.0155 14.076H16.3888C16.8165 14.076 17.1632 13.7071 17.1632 13.252V11.8921C17.1632 11.7052 17.0342 11.5434 16.8522 11.5009C16.2043 11.3495 15.7194 10.7351 15.7194 10.0002C15.7194 9.26521 16.2043 8.65066 16.8522 8.49942ZM10.1316 9.73011L9.14994 10.4434L9.52493 11.5974C9.56853 11.7317 9.41489 11.8433 9.30054 11.7603L8.31883 11.0471L7.33711 11.7603C7.22292 11.8433 7.06913 11.7316 7.11289 11.5974L7.48788 10.4434L6.50616 9.73011C6.39197 9.64707 6.45058 9.46644 6.59176 9.46644H7.80521L8.1802 8.3124C8.2238 8.17809 8.41385 8.17809 8.45745 8.3124L8.83244 9.46644H10.0459C10.1871 9.46644 10.246 9.64707 10.1316 9.73011ZM13.4077 12.3201C13.4077 12.4046 13.3392 12.4731 13.2547 12.4731C13.1702 12.4731 13.1017 12.4046 13.1017 12.3201V7.68029C13.1017 7.5958 13.1702 7.52729 13.2547 7.52729C13.3392 7.52729 13.4077 7.5958 13.4077 7.68029V12.3201Z" fill="white"/>
</svg>
