<svg width="20" height="20" viewBox="0 0 20 20" fill="none" xmlns="http://www.w3.org/2000/svg">
<rect width="20" height="20" rx="10" fill="#FF571B"/>
<path d="M16.4704 13.3524H3.84802C3.59057 13.3524 3.355 13.1747 3.23794 12.8925L3.02106 12.369C2.95638 12.2129 3.04853 12.0277 3.19083 12.0277H17.1276C17.2699 12.0277 17.362 12.2128 17.2973 12.369L17.0805 12.8925C16.9636 13.1748 16.7278 13.3524 16.4704 13.3524Z" fill="white"/>
<path d="M10.695 5.49165H9.62325L9.38274 4.40246C9.33706 4.1958 9.49437 4 9.70598 4H10.6123C10.8239 4 10.9812 4.1958 10.9356 4.40246L10.695 5.49165Z" fill="white"/>
<path d="M10.1591 5.29477C8.47368 5.29477 6.94801 5.97831 5.84412 7.08332C4.80507 8.12332 4.13973 9.53672 4.06659 11.1049C4.05924 11.2625 4.18605 11.3939 4.34384 11.3939H15.9744C16.1322 11.3939 16.259 11.2625 16.2517 11.1049C16.1008 7.87051 13.4306 5.29477 10.1591 5.29477ZM9.68026 6.10847C8.06755 7.15838 6.6385 8.52275 5.39311 10.2016C5.36452 10.2401 5.30351 10.2168 5.30751 10.1692C5.39822 9.07006 5.88149 8.08228 6.61678 7.34619C7.3995 6.56268 8.46793 6.06439 9.65247 6.02111C9.7007 6.01936 9.72066 6.08212 9.68026 6.10847Z" fill="white"/>
</svg>
